<svg viewBox="0 0 64 64" xmlns="http://www.w3.org/2000/svg">
  <rect x="4" y="8" width="56" height="52" rx="10" fill="#2A1F12"></rect>
  <g fill="#E19535" opacity="0.22">
    <rect x="12" y="22" width="8" height="8" rx="2"></rect>
    <rect x="22" y="22" width="8" height="8" rx="2"></rect>
    <rect x="32" y="22" width="8" height="8" rx="2"></rect>
    <rect x="42" y="22" width="8" height="8" rx="2"></rect>
    <rect x="12" y="32" width="8" height="8" rx="2"></rect>
    <rect x="22" y="32" width="8" height="8" rx="2"></rect>
    <rect x="42" y="32" width="8" height="8" rx="2"></rect>
    <rect x="12" y="42" width="8" height="8" rx="2"></rect>
    <rect x="22" y="42" width="8" height="8" rx="2"></rect>
    <rect x="32" y="42" width="8" height="8" rx="2"></rect>
    <rect x="42" y="42" width="8" height="8" rx="2"></rect>
  </g>
  <rect x="32" y="32" width="8" height="8" rx="2" fill="#E19535"></rect>
  <rect x="12" y="14" width="40" height="4" rx="2" fill="#E19535"></rect>
</svg>